<svg width="145" height="27" viewBox="0 0 145 27" fill="none" xmlns="http://www.w3.org/2000/svg">
<path d="M24.6722 21.2758V1.01476H30.7052C31.5128 1.01476 32.2772 1.09151 32.9897 1.245C33.7066 1.39849 34.3544 1.63299 34.9331 1.95277C35.5118 2.27255 36.0171 2.66481 36.4403 3.13381C36.8635 3.60282 37.1917 4.16136 37.4206 4.80518C37.6495 5.449 37.7618 6.16956 37.7618 6.97114C37.7618 7.62775 37.6711 8.24598 37.4983 8.83011C37.3213 9.41423 37.0362 9.93867 36.6432 10.4119C36.2503 10.8809 35.7364 11.2775 35.1058 11.593C34.4753 11.9128 33.7023 12.1217 32.7911 12.224V12.5011C33.7844 12.5608 34.579 12.7655 35.1706 13.1151C35.7623 13.4647 36.2157 13.9551 36.5396 14.5904C36.8592 15.2256 37.1269 16.0144 37.3342 16.9524L38.2973 21.2801H34.7215L34.0046 17.349C33.8794 16.654 33.6937 16.04 33.4432 15.507C33.1927 14.9741 32.83 14.5562 32.3549 14.2493C31.8799 13.9423 31.2148 13.7888 30.3641 13.7888H28.0018V21.2801H24.6765L24.6722 21.2758ZM30.2043 11.2647C31.5733 11.2647 32.6054 10.9534 33.2964 10.3267C33.9917 9.70417 34.3371 8.74483 34.3371 7.4572C34.3371 6.16956 34.0219 5.25287 33.3871 4.64743C32.7565 4.04198 31.7762 3.74352 30.4504 3.74352H27.9932V11.2647H30.2043Z" fill="#1D1D1B"/>
<path d="M43.6998 21.6425C42.9743 21.6425 42.3092 21.489 41.7089 21.182C41.1086 20.875 40.625 20.4146 40.2622 19.8006C39.8994 19.1866 39.7181 18.4106 39.7181 17.4684C39.7181 16.6071 39.8692 15.8908 40.1672 15.3194C40.4695 14.7481 40.8754 14.2663 41.3937 13.8783C41.9119 13.4903 42.5122 13.1663 43.1988 12.9105C43.8812 12.6546 44.598 12.4329 45.3451 12.2496C46.1527 12.0023 46.7703 11.8019 47.1935 11.6356C47.6167 11.4736 47.9147 11.2732 48.0788 11.0387C48.2429 10.8042 48.3293 10.4802 48.3293 10.0708C48.3293 9.25221 48.122 8.62119 47.7074 8.18203C47.2928 7.74287 46.7228 7.52115 45.9973 7.52115C45.5006 7.52115 45.0472 7.64907 44.6455 7.90489C44.2396 8.16071 43.92 8.5487 43.6825 9.07314C43.445 9.59331 43.3241 10.2755 43.3241 11.1154L40.2147 10.6848C40.2147 9.70416 40.3659 8.83864 40.6638 8.09249C40.9661 7.34634 41.3807 6.73237 41.9076 6.25057C42.4344 5.76878 43.0563 5.41063 43.7732 5.17612C44.4901 4.94162 45.2717 4.82224 46.1225 4.82224C47.3058 4.82224 48.3034 5.05248 49.1239 5.51296C49.9444 5.97343 50.5577 6.66842 50.9722 7.60217C51.3868 8.53591 51.5941 9.70417 51.5941 11.1154V14.6458C51.6157 15.3408 51.6287 16.0699 51.6416 16.8245C51.6503 17.5835 51.6675 18.3339 51.6891 19.08C51.7107 19.8262 51.7323 20.5595 51.7496 21.2758H48.7352C48.7568 20.4785 48.7698 19.6855 48.7827 18.8967C48.7914 18.1079 48.8086 17.3063 48.8302 16.4877H48.5193C48.3552 17.5536 48.0529 18.4746 47.6167 19.2506C47.1805 20.0308 46.6364 20.6235 45.9843 21.0328C45.3322 21.4421 44.5678 21.6468 43.6998 21.6468V21.6425ZM44.8485 19.0033C45.2631 19.0033 45.6604 18.8839 46.0448 18.6494C46.4291 18.4149 46.7789 18.0909 47.1028 17.6815C47.4224 17.2722 47.6901 16.7862 47.8974 16.2234C48.1047 15.6605 48.2515 15.0508 48.3336 14.3985V12.6802L49.1714 12.4031C48.9641 12.6888 48.6704 12.9318 48.2861 13.1236C47.9017 13.3198 47.4785 13.4861 47.0121 13.631C46.5457 13.776 46.075 13.921 45.5956 14.0745C45.1206 14.2279 44.6887 14.4241 44.3044 14.6586C43.92 14.8931 43.6048 15.1915 43.3543 15.5497C43.1038 15.9078 42.9829 16.3726 42.9829 16.9482C42.9829 17.6218 43.16 18.1335 43.5098 18.4831C43.8639 18.8327 44.3087 19.0033 44.8485 19.0033Z" fill="#1D1D1B"/>
<path d="M54.2716 21.2758V12.2794L54.2414 5.18891H57.1953L56.9146 11.2689H57.2557C57.4026 9.73401 57.6703 8.49754 58.0633 7.55526C58.4563 6.61299 58.9788 5.92227 59.6353 5.48311C60.2874 5.04395 61.0604 4.82224 61.95 4.82224C63.4011 4.82224 64.485 5.38504 65.1976 6.51066C65.9145 7.63627 66.2686 9.36734 66.2686 11.6996V21.2758H62.9087V12.1259C62.9087 10.6337 62.7446 9.53788 62.4121 8.8429C62.0796 8.14792 61.5311 7.7983 60.7624 7.7983C60.0801 7.7983 59.5014 8.08823 59.035 8.67235C58.5686 9.25648 58.2145 10.0751 57.9769 11.1282C57.7394 12.1814 57.6099 13.4264 57.5883 14.859V21.2758H54.263H54.2716Z" fill="#1D1D1B"/>
<path d="M68.9159 21.2758V0.123647H72.1807V11.9128C72.863 11.5034 73.4806 11.0216 74.029 10.4716C74.5775 9.91735 75.0569 9.33322 75.4585 8.70646C75.8644 8.08396 76.1926 7.46999 76.4518 6.86455C76.7109 6.2591 76.8836 5.70482 76.9657 5.19318H80.6667C80.481 5.90948 80.2046 6.64283 79.8418 7.38898C79.4791 8.13513 79.0213 8.85995 78.4728 9.55494C77.9244 10.2499 77.2896 10.8682 76.577 11.4139C75.8601 11.9554 75.0698 12.3818 74.1975 12.6888V12.9659C75.1735 12.9062 75.994 12.9574 76.6677 13.1194C77.3414 13.2814 77.8985 13.5585 78.3476 13.9465C78.7924 14.3345 79.1552 14.8206 79.4359 15.4047C79.7166 15.9888 79.9368 16.6582 80.1053 17.4172L80.8524 21.2844H77.3371L76.8707 18.4618C76.7065 17.5408 76.4993 16.7776 76.2488 16.1765C75.9983 15.5753 75.6312 15.1191 75.1432 14.8121C74.6552 14.5051 73.9686 14.3516 73.0746 14.3516L72.1721 14.3217V21.2886H68.9072L68.9159 21.2758Z" fill="#1D1D1B"/>
<path d="M84.4022 3.347C83.7372 3.347 83.2232 3.2063 82.8648 2.91637C82.502 2.6307 82.3207 2.20859 82.3207 1.65858C82.3207 1.10856 82.502 0.690718 82.8648 0.413578C83.2276 0.136438 83.7415 0 84.4022 0C85.063 0 85.6071 0.144966 85.9742 0.430633C86.3369 0.7163 86.5183 1.12562 86.5183 1.65858C86.5183 2.19154 86.3369 2.6307 85.9742 2.91637C85.6114 3.20203 85.0889 3.347 84.4022 3.347ZM82.7525 21.2758V5.18891H86.0778V21.2758H82.7525Z" fill="#1D1D1B"/>
<path d="M93.6051 21.6425C92.5902 21.6425 91.6919 21.3313 90.9146 20.7045C90.1373 20.082 89.524 19.1397 89.0792 17.8819C88.6344 16.6241 88.4098 15.0722 88.4098 13.2302C88.4098 11.3883 88.6214 9.84487 89.049 8.5956C89.4722 7.34634 90.0682 6.41259 90.8369 5.78583C91.6056 5.16333 92.4952 4.84782 93.5101 4.84782C94.3392 4.84782 95.0475 5.05674 95.6391 5.47885C96.2308 5.89669 96.7101 6.52345 97.0858 7.35061C97.4572 8.17776 97.7293 9.19679 97.8934 10.4034H98.2648C98.1396 9.58478 98.0316 8.80879 97.9366 8.07117C97.8416 7.33355 97.7725 6.65563 97.7207 6.02886C97.6688 5.40636 97.6429 4.85635 97.6429 4.38734V0.153493H100.968V13.8442L100.998 21.2716H98.0748L98.2605 16.3896H97.9193C97.712 17.5792 97.4227 18.5599 97.047 19.3358C96.6756 20.1161 96.2005 20.6917 95.6305 21.0712C95.0604 21.4506 94.3824 21.6382 93.5921 21.6382L93.6051 21.6425ZM94.5076 18.9095C95.0043 18.9095 95.4491 18.7517 95.8464 18.4319C96.2394 18.1164 96.5676 17.6943 96.8267 17.1742C97.0858 16.654 97.2802 16.0784 97.4184 15.4559C97.5522 14.8334 97.6213 14.2237 97.6213 13.631V13.2004C97.6213 12.7698 97.5868 12.305 97.5134 11.8019C97.44 11.2988 97.3277 10.8085 97.1722 10.3267C97.0167 9.84487 96.8138 9.40571 96.5676 9.00492C96.3171 8.60413 96.0278 8.28862 95.6953 8.05412C95.3627 7.81961 94.9913 7.70023 94.5767 7.70023C94.0153 7.70023 93.5316 7.91341 93.1171 8.34405C92.7025 8.77468 92.3829 9.40997 92.154 10.2457C91.9251 11.0856 91.8129 12.1302 91.8129 13.3752C91.8129 14.5221 91.9208 15.5071 92.1411 16.3385C92.357 17.1656 92.6679 17.8009 93.0739 18.2401C93.4798 18.6792 93.9592 18.901 94.5206 18.901L94.5076 18.9095Z" fill="#1D1D1B"/>
<path d="M107.101 21.6425C106.375 21.6425 105.71 21.489 105.11 21.182C104.509 20.875 104.026 20.4146 103.663 19.8006C103.3 19.1866 103.119 18.4106 103.119 17.4684C103.119 16.6071 103.27 15.8908 103.568 15.3194C103.866 14.7481 104.276 14.2663 104.794 13.8783C105.313 13.4903 105.913 13.1663 106.6 12.9105C107.282 12.6546 107.999 12.4329 108.746 12.2496C109.554 12.0023 110.171 11.8019 110.594 11.6356C111.018 11.4736 111.315 11.2732 111.48 11.0387C111.644 10.8042 111.73 10.4802 111.73 10.0708C111.73 9.25221 111.523 8.62119 111.108 8.18203C110.694 7.74287 110.124 7.52115 109.398 7.52115C108.901 7.52115 108.448 7.64907 108.046 7.90489C107.64 8.16071 107.321 8.5487 107.083 9.07314C106.846 9.59331 106.725 10.2755 106.725 11.1154L103.615 10.6848C103.615 9.70416 103.767 8.83864 104.065 8.09249C104.367 7.34634 104.782 6.73237 105.308 6.25057C105.835 5.76878 106.457 5.41063 107.174 5.17612C107.891 4.94162 108.673 4.82224 109.523 4.82224C110.707 4.82224 111.704 5.05248 112.525 5.51296C113.345 5.97343 113.958 6.66842 114.373 7.60217C114.788 8.53591 114.995 9.70417 114.995 11.1154V14.6458C115.016 15.3408 115.029 16.0699 115.042 16.8245C115.051 17.5835 115.068 18.3339 115.09 19.08C115.111 19.8262 115.133 20.5595 115.15 21.2758H112.136C112.158 20.4785 112.171 19.6855 112.184 18.8967C112.192 18.1079 112.209 17.3063 112.231 16.4877H111.92C111.756 17.5536 111.454 18.4746 111.018 19.2506C110.581 20.0308 110.037 20.6235 109.385 21.0328C108.733 21.4421 107.969 21.6468 107.101 21.6468V21.6425ZM108.249 19.0033C108.664 19.0033 109.061 18.8839 109.446 18.6494C109.83 18.4149 110.18 18.0909 110.504 17.6815C110.823 17.2722 111.091 16.7862 111.298 16.2234C111.506 15.6605 111.652 15.0508 111.734 14.3985V12.6802L112.572 12.4031C112.365 12.6888 112.067 12.9318 111.687 13.1236C111.303 13.3198 110.879 13.4861 110.413 13.631C109.946 13.776 109.476 13.921 108.996 14.0745C108.521 14.2279 108.09 14.4241 107.705 14.6586C107.321 14.8931 107.006 15.1915 106.755 15.5497C106.505 15.9078 106.384 16.3726 106.384 16.9482C106.384 17.6218 106.561 18.1335 106.911 18.4831C107.265 18.8327 107.709 19.0033 108.249 19.0033Z" fill="#1D1D1B"/>
<path d="M117.672 21.2758V12.2794L117.642 5.18891H120.596L120.315 11.2689H120.657C120.799 9.73401 121.071 8.49754 121.464 7.55526C121.857 6.61299 122.38 5.92227 123.036 5.48311C123.688 5.04395 124.461 4.82224 125.351 4.82224C126.802 4.82224 127.886 5.38504 128.598 6.51066C129.315 7.63627 129.669 9.36734 129.669 11.6996V21.2758H126.31V12.1259C126.31 10.6337 126.145 9.53788 125.813 8.8429C125.48 8.14792 124.932 7.7983 124.163 7.7983C123.481 7.7983 122.902 8.08823 122.436 8.67235C121.969 9.25648 121.615 10.0751 121.378 11.1282C121.14 12.1814 121.011 13.4264 120.989 14.859V21.2758H117.664H117.672Z" fill="#1D1D1B"/>
<path d="M137.508 26C136.1 26 134.951 25.8636 134.07 25.5864C133.189 25.3093 132.541 24.9213 132.127 24.4182C131.712 23.9151 131.505 23.3395 131.505 22.6828C131.505 21.7832 131.842 21.0456 132.515 20.4743C133.189 19.9029 134.156 19.5235 135.422 19.3401V19.0033C134.467 19.0033 133.729 18.8711 133.198 18.6025C132.671 18.3381 132.403 17.9288 132.403 17.3745C132.403 16.8203 132.653 16.3982 133.15 16.04C133.647 15.6819 134.415 15.4005 135.452 15.1958V14.8291C134.312 14.6458 133.439 14.1597 132.839 13.3709C132.239 12.5822 131.937 11.6143 131.937 10.4716C131.937 9.40571 132.187 8.48049 132.684 7.6917C133.18 6.90292 133.884 6.28895 134.8 5.84979C135.711 5.41063 136.791 5.18891 138.034 5.18891H144.689V7.8921L140.086 7.18432V7.52115C141.308 7.76845 142.202 8.20761 142.759 8.8429C143.32 9.47819 143.597 10.2457 143.597 11.1453C143.597 11.9852 143.381 12.7399 142.945 13.4178C142.508 14.0958 141.874 14.6373 141.032 15.0466C140.194 15.4559 139.162 15.6605 137.939 15.6605C137.689 15.6605 137.421 15.6435 137.132 15.6136C136.843 15.5838 136.54 15.5369 136.229 15.4772C135.754 15.7245 135.4 15.959 135.171 16.185C134.942 16.411 134.83 16.6028 134.83 16.7691C134.83 16.9141 134.912 17.0249 135.081 17.1059C135.245 17.1869 135.461 17.2381 135.72 17.2594C135.979 17.2807 136.264 17.2893 136.575 17.2893H139.684C140.038 17.2893 140.505 17.3149 141.083 17.366C141.662 17.4172 142.254 17.5622 142.854 17.7967C143.454 18.0312 143.964 18.4149 144.378 18.9478C144.793 19.4808 145 20.227 145 21.1906C145 22.2949 144.698 23.2073 144.098 23.9236C143.497 24.6399 142.638 25.1686 141.515 25.5054C140.392 25.8422 139.058 26.0128 137.503 26.0128L137.508 26ZM137.572 23.1476C138.669 23.1476 139.537 23.0666 140.168 22.9003C140.798 22.7383 141.252 22.4995 141.52 22.1925C141.787 21.8855 141.925 21.5189 141.925 21.0882C141.925 20.6576 141.826 20.3293 141.632 20.1076C141.437 19.8859 141.187 19.7196 140.885 19.6173C140.582 19.5149 140.267 19.4552 139.935 19.4339C139.602 19.4126 139.304 19.4041 139.032 19.4041H136.545C135.715 19.7324 135.128 20.0649 134.787 20.4018C134.446 20.7386 134.273 21.1351 134.273 21.5828C134.273 22.0305 134.415 22.3375 134.709 22.5635C134.998 22.7894 135.391 22.9429 135.892 23.0239C136.389 23.105 136.95 23.1476 137.572 23.1476ZM137.879 13.5671C138.687 13.5671 139.308 13.3027 139.745 12.7698C140.181 12.2368 140.397 11.5205 140.397 10.6209C140.397 9.72122 140.168 8.92817 139.714 8.36537C139.257 7.80256 138.635 7.52115 137.849 7.52115C137.02 7.52115 136.376 7.80256 135.923 8.36537C135.465 8.92817 135.24 9.66153 135.24 10.5612C135.24 11.1538 135.348 11.6783 135.569 12.1259C135.784 12.5779 136.091 12.9275 136.484 13.1833C136.877 13.4392 137.343 13.5671 137.883 13.5671H137.879Z" fill="#1D1D1B"/>
<path d="M17.918 11.5674C17.9008 10.2755 17.8446 8.84716 16.7995 7.91341C16.3331 7.49557 15.7415 7.2227 15.1067 7.20138C14.3595 7.18006 13.7463 7.56806 13.1978 8.02427C13.0942 8.10954 12.9431 8.20335 12.8178 8.29715C12.7703 7.75566 12.6364 6.7878 12.6235 6.65136C12.4723 5.061 12.3255 3.47065 12.1743 1.88029C12.1053 1.13841 11.289 0.47327 10.5506 0.959331C9.67822 1.53067 9.0909 2.3365 8.58994 3.22762C8.02853 4.22106 7.48007 5.22729 6.9273 6.22499C6.01176 7.87931 5.09191 9.53362 4.17637 11.1879C3.69701 10.7701 3.21333 10.3522 2.73397 9.93441C2.08187 9.36733 1.23543 9.64447 0.928816 10.4034C-0.202647 13.2089 -0.293337 16.3982 0.64811 19.2719C0.302625 19.8901 0.604924 20.8921 1.55069 20.9262C4.40958 21.0243 7.27278 21.1223 10.1317 21.2247C11.6 21.2758 13.064 21.327 14.5323 21.3782C15.193 21.3995 15.884 21.4634 16.4972 21.165C17.0975 20.8708 17.4862 20.3293 17.6632 19.694C17.8187 19.1355 17.8144 18.5343 17.8403 17.9587C17.8705 17.2253 17.8921 16.492 17.9094 15.7586C17.9396 14.3601 17.9439 12.9659 17.9267 11.5674H17.918ZM12.8265 8.6553C12.8265 8.6553 12.8351 8.62972 12.8351 8.59561C12.861 8.61692 12.8653 8.63824 12.8265 8.6553ZM12.5846 8.48049C12.5846 8.48049 12.5501 8.48049 12.5544 8.47196C12.5544 8.47196 12.5673 8.47196 12.5846 8.48049ZM15.694 17.4342C15.6767 17.9416 15.7026 18.4788 15.6119 18.982C15.599 19.0417 15.5903 19.2207 15.5601 19.2463C15.4349 19.3657 15.0073 19.2634 14.8475 19.2591C13.4872 19.2165 12.1312 19.1653 10.7708 19.1184C8.10195 19.0246 5.43739 18.9351 2.76852 18.8413C2.07755 16.7904 1.9955 14.6458 2.50077 12.5779C2.9024 12.9275 3.30834 13.2771 3.70997 13.6268C4.21524 14.0659 5.05304 14.0446 5.40716 13.4093L8.58562 7.67465C9.09953 6.74943 9.60912 5.8242 10.123 4.89898C10.1749 4.80945 10.2224 4.71564 10.2742 4.61758C10.313 5.01837 10.3476 5.41915 10.3865 5.81994L10.5635 7.68744C10.624 8.31847 10.6024 9.03477 10.8961 9.61036C11.4791 10.736 12.8869 10.8255 13.8888 10.1988C14.122 10.0538 14.3336 9.86619 14.5366 9.69137C14.6489 9.59331 14.8735 9.34175 15.0376 9.3247C15.2967 9.29485 15.5126 9.66579 15.5903 9.86192C15.789 10.3565 15.7501 10.9406 15.7588 11.4608C15.7674 12.1259 15.7717 12.7868 15.7717 13.452C15.7717 14.778 15.7415 16.104 15.694 17.4342Z" fill="#1D1D1B"/>
</svg>
